<svg width="100" height="100" viewBox="0 0 100 100" fill="none" xmlns="http://www.w3.org/2000/svg">
<path d="M40.2153 18.5522C40.6793 18.8926 41.1434 19.2329 41.6215 19.5835C43.817 20.7251 45.2713 21.1041 47.6684 21.5054C51.0852 22.1009 53.084 23.3605 55.9653 25.3022C57.441 25.4451 58.9169 25.5871 60.395 25.7036C63.9034 26.4825 67.0123 29.0663 68.9291 32.0552C69.6511 34.0711 68.9598 35.2941 68.3139 37.2612C67.3954 41.3212 68.1251 45.6106 70.0746 49.2554C72.6918 52.9194 74.9233 54.0342 79.2153 55.3022C78.844 55.7663 78.4728 56.2304 78.0903 56.7085C76.8211 58.1814 76.8211 58.1814 76.9653 59.8022C76.5215 59.7761 76.0777 59.75 75.6205 59.7231C71.8016 59.5285 71.8016 59.5285 68.3403 60.9272C65.8579 62.4166 63.9689 62.1989 61.1332 62.0581C60.4313 62.0552 60.4313 62.0552 59.7153 62.0522C59.4678 62.2997 59.2203 62.5472 58.9653 62.8022C57.5756 62.8564 56.184 62.8651 54.7934 62.8491C54.0345 62.8424 53.2755 62.8356 52.4936 62.8286C51.6133 62.8156 51.6133 62.8156 50.7153 62.8022C51.4908 63.7469 51.4908 63.7469 53.1791 63.6255C53.8665 63.6168 54.5539 63.6081 55.2621 63.5991C55.9515 63.5924 56.6408 63.5856 57.351 63.5786C57.8837 63.5699 58.4164 63.5612 58.9653 63.5522C59.3365 66.151 59.3365 66.151 59.7153 68.8022C59.9628 66.8222 60.2103 64.8422 60.4653 62.8022C60.9264 62.7568 61.3876 62.7114 61.8627 62.6646C62.4689 62.6017 63.0751 62.5389 63.6996 62.4741C64.3 62.4132 64.9004 62.3523 65.519 62.2896C67.3359 62.0878 67.3359 62.0878 69.4653 61.3022C69.4653 62.0447 69.4653 62.7872 69.4653 63.5522C70.579 62.0672 70.579 62.0672 71.7153 60.5522C73.2003 60.7997 74.6853 61.0472 76.2153 61.3022C75.7798 65.4326 74.2901 68.7418 72.559 72.4585C72.028 73.612 71.4987 74.7663 70.9711 75.9214C70.5785 76.7636 70.5785 76.7636 70.1779 77.6228C69.4827 79.2611 69.0117 80.8809 68.5219 82.5894C67.567 85.1156 67.2327 85.2919 64.7045 86.7847C60.2847 88.0469 55.6945 87.8783 51.1371 87.8335C49.8138 87.8465 49.8138 87.8465 48.4638 87.8599C37.8351 87.8242 37.8351 87.8242 34.2153 85.3022C32.6463 83.0478 31.8243 80.6836 30.9809 78.0835C30.5163 76.7764 30.0505 75.4698 29.5834 74.1636C29.3634 73.5223 29.1433 72.8811 28.9166 72.2205C28.0083 69.7363 26.9146 67.3601 25.7743 64.975C25.2153 63.5522 25.2153 63.5522 25.2153 61.3022C27.1953 61.0547 29.1753 60.8072 31.2153 60.5522C31.7103 61.7897 32.2053 63.0272 32.7153 64.3022C32.7153 63.5597 32.7153 62.8172 32.7153 62.0522C35.4378 62.2997 38.1603 62.5472 40.9653 62.8022C41.4603 66.0197 41.9553 69.2372 42.4653 72.5522C42.094 67.726 42.094 67.726 41.7153 62.8022C42.2103 62.8022 42.7053 62.8022 43.2153 62.8022C41.2135 62.1617 39.7278 62.061 37.5903 62.0991C34.9653 62.0522 34.9653 62.0522 33.5473 61.3286C31.6619 60.4034 30.1146 60.2482 28.0278 60.0835C27.3587 60.0274 26.6897 59.9713 26.0004 59.9136C25.4938 59.8768 24.9872 59.8401 24.4653 59.8022C24.5117 59.1371 24.5581 58.4719 24.6059 57.7866C24.6669 55.3023 24.6669 55.3023 23.3403 53.521C21.8241 50.8676 21.5994 48.499 22.2153 45.5522C23.5221 43.0569 25.1013 41.3839 27.7817 40.355C29.7153 40.3022 29.7153 40.3022 31.2885 41.6528C32.018 42.5853 32.018 42.5853 32.7621 43.5366C34.6026 45.8581 35.9399 47.4335 38.7153 48.5522C38.1859 48.1172 38.1859 48.1172 37.6459 47.6733C31.4618 42.5007 31.4618 42.5007 30.8403 38.8491C31.3512 35.7196 32.4675 34.7027 34.9653 32.8022C36.4564 32.5037 37.957 32.2465 39.4653 32.0522C39.5912 30.2242 39.716 28.3961 39.8403 26.5679C39.876 26.0502 39.9118 25.5324 39.9487 24.999C40.0944 22.8448 40.2153 20.7121 40.2153 18.5522Z" fill="#F6F6F6"/>
<path d="M20.7153 12.5522C24.5768 14.2513 28.1207 16.5354 30.4653 20.0522C30.7934 22.2554 30.7934 22.2554 30.4653 24.5522C28.8247 26.3804 28.8247 26.3804 26.7153 27.5522C24.5679 27.5011 23.4167 27.0825 21.6059 25.9585C19.8454 23.1788 20.6001 19.9678 21.1372 16.8647C21.6375 14.7421 21.6375 14.7421 20.7153 12.5522Z" fill="#F8F8F8"/>
<path d="M76.9652 60.5525C76.7177 61.0475 76.4702 61.5425 76.2152 62.0525C74.7302 61.805 73.2452 61.5575 71.7152 61.3025C70.9727 62.7875 70.2302 64.2725 69.4652 65.8025C69.2177 64.8125 68.9702 63.8225 68.7152 62.8025C68.2202 62.8025 67.7252 62.8025 67.2152 62.8025C64.9652 62.8025 62.7152 62.8025 60.4652 62.8025C60.4962 63.7306 60.5271 64.6587 60.559 65.615C60.6516 68.3941 60.3195 69.094 58.9652 71.8025C58.9652 69.08 58.9652 66.3575 58.9652 63.5525C56.4902 63.5525 54.0152 63.5525 51.4652 63.5525C51.4652 67.265 51.4652 70.9775 51.4652 74.8025C51.2177 74.8025 50.9702 74.8025 50.7152 74.8025C50.7152 70.8425 50.7152 66.8825 50.7152 62.8025C50.2202 62.555 49.7252 62.3075 49.2152 62.0525C49.8843 62.0612 50.5533 62.0699 51.2426 62.0788C52.5594 62.089 52.5594 62.089 53.9027 62.0994C55.2079 62.1124 55.2079 62.1124 56.5395 62.1257C58.5433 62.0652 60.061 61.8303 61.9652 61.3025C62.6923 61.3334 63.4193 61.3644 64.1684 61.3962C66.5048 61.5083 66.5048 61.5083 68.1996 60.0837C71.2728 58.5114 73.7763 59.5868 76.9652 60.5525Z" fill="#3A3A3A"/>
<path d="M31.2152 25.3022C33.534 27.1994 34.1472 29.2207 34.9652 32.0522C34.2924 32.3075 34.2924 32.3075 33.6059 32.5679C31.5426 33.8058 30.8216 35.2002 29.7152 37.3022C27.3933 34.6707 26.1588 32.4333 25.2152 29.0522C26.066 28.7119 26.9168 28.3716 27.7934 28.021C30.5007 27.124 30.5007 27.124 31.2152 25.3022Z" fill="#F4F4F4"/>
<path d="M31.9652 59.8023C32.7063 60.1779 32.7063 60.1779 33.4623 60.5611C35.1961 61.4161 36.1934 61.4138 38.1059 61.3023C41.7331 61.2059 44.9725 61.8775 48.4652 62.8023C48.4652 63.0498 48.4652 63.2973 48.4652 63.5523C46.4852 63.5523 44.5052 63.5523 42.4652 63.5523C42.589 64.1401 42.7127 64.7279 42.8402 65.3335C43.3125 68.757 43.2766 72.1028 43.2152 75.5523C41.6023 72.9034 41.4304 70.5551 41.2465 67.4898C41.1904 66.6119 41.1343 65.7341 41.0766 64.8296C41.0398 64.1606 41.0031 63.4916 40.9652 62.8023C40.4954 62.811 40.0255 62.8197 39.5414 62.8287C38.9285 62.8354 38.3155 62.8422 37.684 62.8492C37.0749 62.8579 36.4658 62.8666 35.8383 62.8755C34.2152 62.8023 34.2152 62.8023 32.7152 62.0523C32.9627 63.7848 33.2102 65.5173 33.4652 67.3023C31.3936 65.2306 31.5313 63.397 31.2152 60.5523C28.9877 61.0473 26.7602 61.5423 24.4652 62.0523C24.4652 61.5573 24.4652 61.0623 24.4652 60.5523C26.8176 59.3761 29.3941 59.5161 31.9652 59.8023Z" fill="#474747"/>
<path d="M30.4652 41.0522C33.3483 42.2268 35.0849 44.068 37.2152 46.3022C37.9113 46.9983 38.6074 47.6944 39.3246 48.4116C39.866 48.953 40.4074 49.4944 40.9652 50.0522C36.9954 48.9357 34.0134 46.2377 31.2152 43.3022C30.9677 42.5597 30.7202 41.8172 30.4652 41.0522Z" fill="#252525"/>
<path d="M31.2152 25.3022C30.7934 26.7554 30.7934 26.7554 29.7152 28.3022C26.9965 28.8647 26.9965 28.8647 24.4652 29.0522C25.2077 28.8047 25.9502 28.5572 26.7152 28.3022C26.7152 27.8072 26.7152 27.3122 26.7152 26.8022C28.9652 25.3022 28.9652 25.3022 31.2152 25.3022Z" fill="#222222"/>
</svg>
