<svg width="375" height="225" viewBox="0 0 375 225" fill="none" xmlns="http://www.w3.org/2000/svg">
<g clip-path="url(#clip0_913_234046)">
<path d="M324.469 226.015H61.1325C60.8385 226.015 60.5985 225.777 60.5985 225.481C60.5985 225.187 60.837 224.947 61.1325 224.947H324.469C324.763 224.947 325.003 225.186 325.003 225.481C325.003 225.775 324.765 226.015 324.469 226.015Z" fill="#030047"/>
<path d="M312.912 35.6349H72.69V225.481H312.912V35.6349Z" fill="white"/>
<path d="M313.446 226.015H72.156V35.101H313.444V226.015H313.446ZM73.224 224.947H312.378V36.169H73.224V224.947Z" fill="#030047"/>
<path d="M312.912 37.3315H72.69V29.341C72.69 21.0835 79.3845 14.389 87.642 14.389H297.96C306.218 14.389 312.912 21.0835 312.912 29.341V37.3315Z" fill="#E6F3FC"/>
<path d="M313.446 37.8641H72.156V29.3411C72.156 20.8016 79.1025 13.8551 87.642 13.8551H297.96C306.498 13.8551 313.446 20.8016 313.446 29.3411V37.8641ZM73.224 36.7976H312.378V29.3411C312.378 21.3911 305.91 14.9231 297.96 14.9231H87.642C79.692 14.9231 73.224 21.3911 73.224 29.3411V36.7976Z" fill="#030047"/>
<path d="M83.5425 28.9465C85.2474 28.9465 86.6295 27.5644 86.6295 25.8595C86.6295 24.1546 85.2474 22.7725 83.5425 22.7725C81.8376 22.7725 80.4555 24.1546 80.4555 25.8595C80.4555 27.5644 81.8376 28.9465 83.5425 28.9465Z" fill="white"/>
<path d="M92.0505 28.9465C93.7554 28.9465 95.1375 27.5644 95.1375 25.8595C95.1375 24.1546 93.7554 22.7725 92.0505 22.7725C90.3456 22.7725 88.9635 24.1546 88.9635 25.8595C88.9635 27.5644 90.3456 28.9465 92.0505 28.9465Z" fill="white"/>
<path d="M100.558 28.9465C102.263 28.9465 103.645 27.5644 103.645 25.8595C103.645 24.1546 102.263 22.7725 100.558 22.7725C98.8536 22.7725 97.4715 24.1546 97.4715 25.8595C97.4715 27.5644 98.8536 28.9465 100.558 28.9465Z" fill="white"/>
<path d="M195.861 140.164L223.282 137.47C230.056 136.804 236.191 141.495 237.324 148.207L250.368 225.481H150.532V151.098C150.532 143.62 156.844 137.695 164.305 138.168L195.861 140.164Z" fill="#C596FF"/>
<path d="M150.533 226.015C150.239 226.015 149.999 225.777 149.999 225.481V151.098C149.999 150.804 150.237 150.564 150.533 150.564C150.828 150.564 151.067 150.802 151.067 151.098V225.481C151.067 225.775 150.827 226.015 150.533 226.015Z" fill="#030047"/>
<path d="M245.892 199.506C245.636 199.506 245.411 199.321 245.367 199.06L236.798 148.296C236.748 148.005 236.945 147.73 237.234 147.681C237.519 147.633 237.8 147.828 237.849 148.119L246.419 198.883C246.468 199.174 246.272 199.449 245.982 199.498C245.952 199.503 245.922 199.506 245.892 199.506Z" fill="#030047"/>
<path d="M123.752 92.8704H123.716L119.318 145.111L137.495 138.983L145.409 169.288L112.029 180.305C108.79 181.379 105.438 181.436 102.321 180.64C97.716 179.465 93.6375 176.405 91.2825 171.949C89.5245 168.617 88.905 164.803 89.5035 161.087L96.7485 94.1079L95.1465 61.0629C95.0475 59.4264 96.0645 57.8394 97.6515 57.4404C99.786 56.9139 101.758 58.4289 101.886 60.5229C101.779 58.6584 101.538 54.7719 104.925 54.8364C106.805 54.8724 108.398 56.1459 108.519 58.0044L108.306 54.6024C108.178 52.3599 110.249 50.5029 112.641 51.1434C114.036 51.5064 114.983 52.7739 115.061 54.1974V54.2184L115.232 57.1224C115.403 55.0509 117.544 53.4639 119.808 54.2109C121.081 54.6384 121.95 55.8474 122.028 57.2004L122.036 57.2079L123.167 77.7054" fill="white"/>
<path d="M106.612 181.715C105.13 181.715 103.645 181.529 102.189 181.157C97.3095 179.912 93.162 176.648 90.81 172.199C89.013 168.796 88.3619 164.819 88.9754 161.005L96.2129 94.093L94.614 61.09C94.4955 59.164 95.7465 57.37 97.5225 56.9245C98.6835 56.638 99.8864 56.872 100.828 57.5635C101.019 57.703 101.194 57.859 101.353 58.027C101.458 56.9935 101.748 55.9585 102.45 55.2295C103.06 54.595 103.9 54.2875 104.935 54.304C106.078 54.325 107.088 54.7345 107.821 55.4035L107.773 54.6355C107.701 53.3755 108.241 52.15 109.216 51.3565C110.205 50.551 111.502 50.287 112.777 50.6275C114.366 51.04 115.498 52.4635 115.593 54.1675L115.633 54.877C115.87 54.6025 116.145 54.358 116.454 54.154C117.487 53.47 118.768 53.3065 119.974 53.704C121.407 54.184 122.436 55.54 122.554 57.094C122.562 57.1225 122.565 57.1495 122.566 57.178L123.699 77.6755C123.715 77.9695 123.49 78.2215 123.195 78.238C122.928 78.247 122.649 78.0295 122.632 77.734L121.504 57.3085C121.498 57.283 121.495 57.256 121.494 57.2305C121.428 56.077 120.681 55.0675 119.637 54.7165C118.734 54.4195 117.813 54.535 117.043 55.0435C116.311 55.528 115.831 56.3215 115.762 57.1645C115.738 57.4435 115.5 57.6565 115.224 57.655C114.943 57.652 114.714 57.4315 114.697 57.1525L114.526 54.2485C114.459 52.987 113.646 51.9565 112.506 51.6595C111.562 51.4075 110.61 51.598 109.89 52.1845C109.179 52.7635 108.786 53.6545 108.838 54.571L109.051 57.967C109.051 57.967 109.051 57.9685 109.051 57.97V57.9715C109.071 58.2655 108.847 58.519 108.553 58.537C108.259 58.555 108.006 58.333 107.986 58.039V58.0375V58.036C107.886 56.5225 106.596 55.402 104.916 55.3705C104.172 55.3465 103.62 55.552 103.218 55.969C102.219 57.0055 102.348 59.2525 102.417 60.46C102.417 60.4645 102.417 60.4675 102.417 60.472C102.417 60.478 102.417 60.4855 102.418 60.4915H102.417C102.417 60.7735 102.199 61.024 101.916 61.0405C101.601 61.0615 101.37 60.85 101.352 60.5575C101.352 60.5575 101.352 60.556 101.352 60.5545V60.553C101.299 59.701 100.878 58.9255 100.194 58.4245C99.4995 57.913 98.6414 57.748 97.7774 57.961C96.4934 58.2835 95.5904 59.605 95.6774 61.033L97.2795 94.0855C97.281 94.114 97.2795 94.141 97.278 94.168L90.0329 161.147C89.4524 164.764 90.0645 168.502 91.7535 171.701C93.9645 175.883 97.8645 178.954 102.453 180.124C105.567 180.92 108.822 180.808 111.861 179.8L144.766 168.94L137.122 139.673L119.487 145.618C119.316 145.675 119.128 145.643 118.987 145.532C118.846 145.421 118.77 145.247 118.785 145.067L123.183 92.827C123.205 92.551 123.438 92.338 123.714 92.338C124.008 92.338 124.266 92.5765 124.266 92.872C124.266 92.938 124.255 93.001 124.234 93.0595L119.916 144.346L137.323 138.478C137.464 138.431 137.617 138.443 137.748 138.514C137.878 138.584 137.973 138.706 138.01 138.848L145.924 169.153C145.995 169.426 145.843 169.706 145.575 169.795L112.195 180.812C110.385 181.414 108.501 181.715 106.612 181.715Z" fill="#030047"/>
<path d="M109.011 66.844C108.731 66.844 108.497 66.6265 108.479 66.3415L107.979 58.027C107.961 57.733 108.186 57.4795 108.48 57.463C108.764 57.439 109.026 57.6685 109.046 57.964L109.545 66.2785C109.563 66.5725 109.338 66.826 109.044 66.8425C109.032 66.844 109.022 66.844 109.011 66.844Z" fill="#030047"/>
<path d="M115.755 66.439C115.474 66.439 115.24 66.2215 115.222 65.9365L114.694 57.1495C114.676 56.8555 114.901 56.602 115.195 56.5855C115.479 56.5645 115.743 56.791 115.761 57.0865L116.289 65.8735C116.307 66.1675 116.082 66.421 115.788 66.4375C115.776 66.439 115.765 66.439 115.755 66.439Z" fill="#030047"/>
<path d="M102.26 67.2489C101.979 67.2489 101.745 67.0314 101.727 66.7464L101.229 58.4454C101.211 58.1514 101.436 57.8979 101.73 57.8814C102.011 57.8574 102.276 58.0869 102.296 58.3824L102.794 66.6834C102.812 66.9774 102.587 67.2309 102.293 67.2474C102.281 67.2489 102.27 67.2489 102.26 67.2489Z" fill="#030047"/>
<path d="M176.186 138.88C176.186 138.88 154.62 135.233 149.787 137.407L131.624 138.871L134.525 178.528L162.8 172.547C167.582 171.101 171.147 167.093 172.025 162.175L176.186 138.88Z" fill="#C596FF"/>
<path d="M134.524 179.062C134.41 179.062 134.296 179.025 134.203 178.956C134.08 178.863 134.004 178.722 133.992 178.567L131.091 138.91C131.07 138.618 131.289 138.363 131.58 138.339L149.743 136.873C150.03 136.85 150.294 137.068 150.319 137.362C150.343 137.656 150.124 137.913 149.83 137.937L132.195 139.359L135.012 177.877L162.688 172.023C162.975 171.964 163.26 172.146 163.321 172.435C163.383 172.723 163.198 173.007 162.91 173.068L134.635 179.049C134.598 179.059 134.562 179.062 134.524 179.062Z" fill="#030047"/>
<path d="M117.784 151.64C117.741 151.64 117.696 151.636 117.651 151.624C117.366 151.55 117.193 151.261 117.265 150.974L118.797 144.982C118.87 144.695 119.161 144.521 119.446 144.596C119.731 144.67 119.904 144.959 119.832 145.246L118.3 151.238C118.239 151.48 118.021 151.64 117.784 151.64Z" fill="#030047"/>
<path d="M255.093 77.6606L253.797 57.1706L253.804 57.1631C253.726 55.8116 254.445 54.5081 255.655 53.9321C257.818 52.9286 260.133 54.2516 260.545 56.2871L260.374 53.3831V53.3621C260.281 51.9386 261.072 50.5646 262.417 50.0456C264.717 49.1276 266.986 50.7296 267.129 52.9706L267.307 56.1941C267.307 54.4226 268.716 53.0486 270.51 52.7996C273.756 52.3511 274.068 55.9736 274.189 57.9026C274.189 55.8881 275.926 54.2651 278.04 54.5291C279.663 54.7421 280.866 56.1941 280.958 57.8321L283.143 89.2481L283.257 89.2406L293.598 161.089C294.196 164.805 293.577 168.619 291.819 171.951C289.464 176.406 285.391 179.467 280.78 180.642C277.663 181.438 274.311 181.381 271.072 180.307L237.693 169.29L245.607 138.985L263.784 145.113L255.948 91.6121" fill="white"/>
<path d="M276.488 181.716C274.599 181.716 272.715 181.414 270.902 180.813L237.522 169.795C237.255 169.707 237.102 169.426 237.173 169.153L245.088 138.849C245.126 138.706 245.222 138.585 245.351 138.514C245.481 138.444 245.634 138.432 245.775 138.478L263.127 144.328L255.417 91.69C255.375 91.3975 255.576 91.1275 255.869 91.084C256.157 91.042 256.431 91.243 256.475 91.534L264.311 145.035C264.338 145.219 264.267 145.404 264.125 145.522C263.982 145.641 263.787 145.677 263.612 145.618L245.978 139.674L238.334 168.94L271.238 179.8C274.278 180.81 277.53 180.921 280.647 180.124C285.234 178.956 289.133 175.885 291.347 171.702C293.036 168.501 293.648 164.763 293.072 161.175L282.774 89.635C282.681 89.5465 282.62 89.4235 282.611 89.2855L280.427 57.8695C280.346 56.4385 279.29 55.2325 277.971 55.0585C277.127 54.9535 276.315 55.198 275.693 55.7485C275.078 56.2915 274.725 57.0775 274.725 57.904C274.725 58.192 274.497 58.429 274.208 58.438C273.935 58.4455 273.677 58.225 273.659 57.9385C273.591 56.8645 273.45 54.6325 272.339 53.7235C271.892 53.359 271.32 53.23 270.584 53.3305C268.995 53.551 267.842 54.757 267.842 56.197C267.842 56.4865 267.612 56.722 267.323 56.731C267.054 56.752 266.792 56.5165 266.775 56.227L266.597 53.002C266.54 52.087 266.04 51.2455 265.265 50.755C264.483 50.2615 263.517 50.1835 262.617 50.5435C261.513 50.971 260.829 52.09 260.91 53.3305L261.081 56.2585C261.098 56.539 260.895 56.7835 260.616 56.8195C260.339 56.8555 260.081 56.671 260.024 56.3965C259.856 55.57 259.289 54.8395 258.506 54.4435C257.681 54.0265 256.749 54.0175 255.881 54.4195C254.894 54.8905 254.273 55.9825 254.339 57.136C254.34 57.1645 254.339 57.193 254.337 57.2215L255.627 77.6305C255.647 77.9245 255.423 78.178 255.128 78.1975C254.859 78.2185 254.58 77.9935 254.562 77.698L253.266 57.208C253.265 57.175 253.265 57.142 253.268 57.1105C253.212 55.561 254.072 54.0985 255.426 53.4535C256.584 52.9165 257.88 52.9315 258.986 53.491C259.317 53.659 259.617 53.866 259.881 54.106L259.841 53.419C259.73 51.6925 260.687 50.146 262.223 49.552C263.439 49.066 264.756 49.1755 265.832 49.855C266.895 50.527 267.579 51.6805 267.659 52.9405L267.702 53.7205C268.358 52.9615 269.315 52.4305 270.434 52.2745C271.464 52.132 272.331 52.342 273.011 52.8985C273.792 53.5375 274.205 54.5545 274.43 55.5535C274.59 55.336 274.776 55.1335 274.982 54.952C275.838 54.196 276.945 53.8585 278.103 54.004C279.924 54.244 281.379 55.8775 281.489 57.8065L283.65 88.8865C283.719 88.963 283.767 89.0605 283.784 89.1685L294.125 161.017C294.737 164.823 294.086 168.799 292.289 172.203C289.935 176.653 285.788 179.919 280.91 181.161C279.455 181.53 277.97 181.716 276.488 181.716Z" fill="#030047"/>
<path d="M267.807 65.212C267.527 65.212 267.291 64.993 267.274 64.7095L266.792 56.3935C266.775 56.0995 267 55.8475 267.294 55.8295C267.604 55.813 267.841 56.0365 267.858 56.332L268.341 64.648C268.357 64.942 268.132 65.194 267.838 65.212C267.828 65.212 267.818 65.212 267.807 65.212Z" fill="#030047"/>
<path d="M261.063 65.605C260.782 65.605 260.547 65.386 260.53 65.1025L260.019 56.314C260.002 56.02 260.227 55.768 260.521 55.75C260.824 55.726 261.067 55.957 261.085 56.2525L261.597 65.041C261.613 65.335 261.388 65.587 261.094 65.605C261.084 65.605 261.073 65.605 261.063 65.605Z" fill="#030047"/>
<path d="M274.558 64.819C274.278 64.819 274.042 64.6 274.026 64.3165L273.543 56.014C273.526 55.72 273.751 55.468 274.045 55.45C274.362 55.426 274.593 55.657 274.609 55.9525L275.092 64.255C275.109 64.549 274.884 64.801 274.59 64.819C274.579 64.819 274.569 64.819 274.558 64.819Z" fill="#030047"/>
<path d="M206.916 138.88C206.916 138.88 228.482 135.233 233.315 137.407L251.478 138.871L248.577 178.528L220.302 172.547C215.52 171.101 211.955 167.093 211.077 162.175L206.916 138.88Z" fill="#C596FF"/>
<path d="M248.577 179.062C248.539 179.062 248.503 179.057 248.466 179.05L220.191 173.069C219.903 173.008 219.718 172.724 219.78 172.436C219.84 172.147 220.122 171.967 220.413 172.024L248.089 177.878L250.908 139.36L233.272 137.938C232.978 137.914 232.759 137.657 232.783 137.363C232.807 137.069 233.074 136.85 233.359 136.874L251.523 138.34C251.815 138.364 252.034 138.619 252.012 138.911L249.109 178.568C249.099 178.721 249.021 178.864 248.898 178.957C248.805 179.026 248.692 179.062 248.577 179.062Z" fill="#030047"/>
<path d="M265.317 151.64C265.08 151.64 264.862 151.48 264.801 151.238L263.271 145.246C263.197 144.961 263.37 144.67 263.656 144.596C263.944 144.521 264.232 144.695 264.306 144.982L265.836 150.974C265.909 151.259 265.737 151.55 265.45 151.624C265.405 151.636 265.362 151.64 265.317 151.64Z" fill="#030047"/>
<path d="M295.204 77.311H93.753C92.8125 77.311 92.0505 76.549 92.0505 75.6085V2.79397C92.0505 1.85347 92.8125 1.09146 93.753 1.09146H295.204C296.145 1.09146 296.907 1.85347 296.907 2.79397V75.6085C296.907 76.549 296.145 77.311 295.204 77.311Z" fill="#C596FF"/>
<path d="M255.946 91.6106C255.399 90.1946 254.089 87.8246 251.128 86.3801L246.075 83.7116C245.064 83.1701 244.338 82.3031 243.961 81.2846C243.634 80.3951 243.591 79.3991 243.868 78.4451C244.623 75.8906 247.42 74.5301 249.904 75.5486L264.427 82.3946" fill="white"/>
<path d="M255.946 92.1444C255.732 92.1444 255.529 92.0154 255.448 91.8024C254.964 90.5499 253.728 88.2414 250.894 86.8584L245.826 84.1824C244.732 83.5974 243.892 82.6344 243.46 81.4689C243.09 80.4624 243.052 79.3359 243.355 78.2949C243.759 76.9254 244.728 75.7884 246.012 75.1719C247.294 74.5554 248.787 74.5134 250.104 75.0534L264.652 81.9114C264.919 82.0374 265.033 82.3554 264.909 82.6224C264.783 82.8879 264.465 83.0049 264.198 82.8774L249.675 76.0314C248.644 75.6099 247.498 75.6429 246.474 76.1349C245.461 76.6209 244.698 77.518 244.38 78.5965C244.141 79.4185 244.17 80.3079 244.461 81.1014C244.801 82.0209 245.464 82.7814 246.325 83.2419L251.376 85.9104C254.521 87.4449 255.901 90.022 256.441 91.4215C256.548 91.696 256.411 92.0049 256.137 92.1114C256.075 92.1324 256.011 92.1444 255.946 92.1444Z" fill="#030047"/>
<path d="M116.479 80.7581L128.071 74.9921C130.413 73.6901 133.353 74.7071 134.406 77.1551C134.79 78.0731 134.868 79.0691 134.647 79.9871C134.391 81.0401 133.771 81.9941 132.832 82.6496L128.128 85.8956C123.972 88.5716 123.751 92.8706 123.751 92.8706" fill="white"/>
<path d="M123.752 93.4046C123.743 93.4046 123.732 93.4046 123.723 93.4046C123.429 93.3896 123.201 93.1391 123.218 92.8436C123.227 92.6576 123.503 88.2386 127.839 85.4471L132.53 82.2116C133.326 81.6551 133.896 80.8211 134.129 79.8626C134.324 79.0496 134.247 78.1616 133.913 77.3621C133.47 76.3331 132.603 75.5321 131.54 75.1706C130.463 74.8046 129.323 74.9066 128.33 75.4601L116.717 81.2381C116.453 81.3701 116.132 81.2621 116.001 80.9981C115.869 80.7341 115.977 80.4146 116.241 80.2826L127.833 74.5166C129.054 73.8371 130.539 73.7036 131.885 74.1611C133.235 74.6216 134.331 75.6356 134.895 76.9466C135.32 77.9591 135.414 79.0826 135.167 80.1146C134.871 81.3281 134.151 82.3841 133.137 83.0891L128.43 86.3366C124.535 88.8446 124.286 92.8586 124.283 92.8991C124.271 93.1826 124.035 93.4046 123.752 93.4046Z" fill="#030047"/>
<path d="M206.391 139.12C206.423 145.776 179.171 145.903 179.139 139.248L182.079 110.665L205.488 115.54L206.391 139.12Z" fill="white"/>
<path d="M192.587 144.71C189.039 144.71 185.732 144.275 183.252 143.48C179.423 142.253 178.611 140.503 178.605 139.25L181.547 110.611C181.562 110.461 181.641 110.324 181.763 110.234C181.884 110.146 182.039 110.113 182.187 110.143L205.596 115.018C205.836 115.067 206.012 115.274 206.021 115.52L206.925 139.1C206.925 139.106 206.925 139.112 206.925 139.118C206.931 140.371 206.136 142.127 202.319 143.392C199.799 144.226 196.416 144.694 192.792 144.71C192.723 144.71 192.654 144.71 192.587 144.71ZM182.549 111.308L179.67 139.303C179.685 141.787 185.294 143.674 192.786 143.642C196.302 143.626 199.568 143.177 201.984 142.378C203.432 141.899 205.859 140.84 205.859 139.132L204.971 115.979L182.549 111.308Z" fill="#030047"/>
<path d="M182.015 119.686C171.45 111.525 167.276 98.089 167.276 98.089L187.77 75.808C188.528 76.0315 206.438 76.024 216.216 94.1605C224.229 109.023 215.846 122.023 196.113 124.653" fill="white"/>
<path d="M196.112 125.187C195.848 125.187 195.618 124.992 195.584 124.723C195.545 124.431 195.75 124.162 196.043 124.123C206.33 122.752 213.77 118.519 216.993 112.204C219.648 107.002 219.218 100.849 215.748 94.4141C210.077 83.8946 200.325 77.5 188.289 76.405C188.16 76.393 188.058 76.3841 187.974 76.3751L167.882 98.2181C168.561 100.206 172.886 111.958 182.342 119.263C182.574 119.443 182.618 119.779 182.438 120.012C182.258 120.246 181.923 120.289 181.689 120.108C171.114 111.937 166.809 98.3816 166.769 98.2466C166.712 98.0651 166.757 97.867 166.886 97.726L187.38 75.4451C187.518 75.2951 187.73 75.2381 187.925 75.2951C187.982 75.3056 188.145 75.319 188.388 75.34C200.792 76.468 210.842 83.0606 216.69 93.9056C220.334 100.665 220.769 107.16 217.947 112.689C214.56 119.325 206.832 123.762 196.187 125.181C196.16 125.185 196.136 125.187 196.112 125.187Z" fill="#030047"/>
<path d="M209.69 76.3976C209.69 88.8131 181.365 94.4651 181.365 94.4651C179.55 96.8636 183.237 103.497 181.85 106.03C180.455 108.564 179.721 107.283 179.721 107.283L173.985 114.201C173.985 114.201 158.235 107.269 159.231 98.4011C160.235 89.5331 167.409 88.5371 167.409 88.5371C167.409 88.5371 160.704 82.6661 163.73 78.3671C165.929 75.2501 171.387 74.7521 174.221 74.7236C172.833 74.4041 174.717 67.1921 180.081 65.0741C194.55 59.3576 209.69 56.8466 209.69 76.3976Z" fill="#030047"/>
<path d="M196.373 96.9999C194.811 97.3419 193.598 98.6949 193.292 100.433L196.373 96.9999Z" fill="white"/>
<path d="M193.293 100.966C193.263 100.966 193.232 100.963 193.2 100.958C192.909 100.907 192.716 100.631 192.767 100.34C193.11 98.3829 194.481 96.8679 196.259 96.4779C196.544 96.4134 196.832 96.5964 196.895 96.8844C196.958 97.1724 196.776 97.4574 196.487 97.5204C195.134 97.8174 194.085 98.9964 193.817 100.525C193.772 100.784 193.547 100.966 193.293 100.966Z" fill="#030047"/>
<path d="M206.319 94.195C207.096 95.152 208.254 95.506 208.904 94.9795C209.546 94.456 209.435 93.2485 208.649 92.29C207.863 91.33 206.703 90.976 206.061 91.4995C205.416 92.0335 205.533 93.2365 206.319 94.195Z" fill="#030047"/>
<path d="M196.631 102.383C197.417 103.342 198.572 103.69 199.221 103.163C199.865 102.64 199.746 101.437 198.966 100.474C198.18 99.5154 197.021 99.1614 196.376 99.6939C195.734 100.217 195.851 101.422 196.631 102.383Z" fill="#030047"/>
<path d="M206.057 88.8129C204.495 89.1549 203.282 90.5079 202.976 92.2464L206.057 88.8129Z" fill="white"/>
<path d="M202.977 92.7805C202.947 92.7805 202.916 92.7775 202.884 92.773C202.593 92.722 202.4 92.446 202.451 92.155C202.794 90.1975 204.165 88.6825 205.943 88.2925C206.226 88.2265 206.516 88.411 206.579 88.699C206.642 88.987 206.46 89.272 206.171 89.335C204.818 89.632 203.769 90.811 203.501 92.3395C203.456 92.5975 203.231 92.7805 202.977 92.7805Z" fill="#030047"/>
<path d="M180.134 107.299C180.134 107.299 170.769 104.518 168.02 107.564C165.27 110.611 173.049 121.903 177.698 120.838C182.346 119.773 184.73 116.411 184.73 116.411" fill="white"/>
<path d="M177.057 121.444C174.209 121.444 170.787 118.142 168.695 114.58C166.788 111.332 166.388 108.575 167.622 107.207C170.562 103.948 179.888 106.67 180.285 106.787C180.567 106.871 180.729 107.168 180.645 107.45C180.561 107.732 180.266 107.893 179.981 107.81C177.467 107.065 170.486 105.629 168.416 107.921C167.535 108.896 168.006 111.298 169.616 114.038C171.677 117.55 175.233 120.856 177.578 120.317C181.958 119.314 184.272 116.134 184.295 116.101C184.466 115.861 184.799 115.805 185.039 115.976C185.279 116.147 185.336 116.479 185.165 116.72C185.063 116.864 182.607 120.26 177.816 121.358C177.569 121.417 177.315 121.444 177.057 121.444Z" fill="#030047"/>
<path d="M175.128 115.452C175.017 115.452 174.905 115.417 174.809 115.345C174.017 114.751 173.339 113.982 172.848 113.121C172.43 112.389 172.329 111.768 172.542 111.222C172.722 110.763 173.139 110.391 173.658 110.224C174.038 110.103 174.467 110.083 174.966 110.163C175.599 110.265 176.219 110.503 176.757 110.85C177.005 111.01 177.075 111.34 176.916 111.588C176.756 111.835 176.427 111.907 176.178 111.747C175.763 111.478 175.286 111.295 174.798 111.217C174.468 111.165 174.201 111.172 173.985 111.241C173.772 111.309 173.601 111.451 173.54 111.61C173.454 111.832 173.534 112.164 173.778 112.593C174.197 113.328 174.776 113.985 175.452 114.492C175.688 114.669 175.736 115.003 175.559 115.239C175.451 115.378 175.292 115.452 175.128 115.452Z" fill="#030047"/>
<path d="M204.32 98.5253C205.526 99.8498 206.73 101.174 207.936 102.497C208.664 103.295 209.409 104.131 209.634 105.155C209.859 106.181 209.402 107.456 208.266 108.008" fill="white"/>
<path d="M208.266 108.544C208.068 108.544 207.878 108.433 207.785 108.244C207.656 107.978 207.767 107.659 208.031 107.53C208.955 107.08 209.277 106.03 209.112 105.271C208.914 104.366 208.184 103.564 207.54 102.857L203.924 98.8855C203.726 98.668 203.741 98.3305 203.96 98.131C204.177 97.933 204.515 97.948 204.714 98.167L208.331 102.139C209.064 102.944 209.895 103.858 210.155 105.043C210.414 106.229 209.928 107.794 208.499 108.49C208.424 108.526 208.344 108.544 208.266 108.544Z" fill="#030047"/>
<path d="M202.61 115.042C202.266 115.042 201.923 115.007 201.587 114.938C200.393 114.689 199.287 113.987 198.552 113.014C198.375 112.778 198.422 112.444 198.657 112.267C198.894 112.09 199.229 112.138 199.406 112.372C199.985 113.143 200.859 113.696 201.804 113.894C202.748 114.091 203.772 113.932 204.612 113.458C204.869 113.312 205.194 113.404 205.34 113.66C205.484 113.917 205.394 114.242 205.137 114.388C204.375 114.817 203.492 115.042 202.61 115.042Z" fill="#030047"/>
<path d="M50.5289 150.073C50.4659 150.073 50.4015 150.062 50.34 150.038C46.8615 148.715 43.9529 146.029 42.3614 142.664C41.0024 139.795 40.6319 136.495 41.2874 133.396C40.3619 132.661 39.5639 131.605 38.9069 130.243C36.8189 125.921 37.0754 120.475 39.5594 116.366C39.7109 116.114 40.0379 116.032 40.2929 116.186C40.5449 116.339 40.6259 116.666 40.4729 116.92C38.1704 120.727 37.9334 125.774 39.8684 129.779C40.3634 130.804 40.9379 131.626 41.5844 132.239C41.6264 132.098 41.6714 131.959 41.7179 131.819C41.9654 131.08 42.3914 130.004 43.2059 129.206C44.0639 128.365 45.228 127.999 46.2435 128.254C47.109 128.47 47.7899 129.136 48.1109 130.081C48.4784 131.158 48.3029 132.335 47.6535 133.156C46.5389 134.569 44.3039 134.984 42.4529 134.12C42.3869 134.089 42.3194 134.056 42.2534 134.023C41.7599 136.775 42.1274 139.672 43.3274 142.207C44.8034 145.324 47.4975 147.814 50.721 149.039C50.9955 149.144 51.135 149.452 51.03 149.728C50.9475 149.942 50.7449 150.073 50.5289 150.073ZM42.4934 132.938C42.6269 133.018 42.7634 133.09 42.9014 133.156C44.1195 133.726 45.9164 133.633 46.8134 132.497C47.2334 131.966 47.3444 131.155 47.0984 130.429C46.8959 129.833 46.4894 129.419 45.9824 129.292C45.3329 129.131 44.5364 129.397 43.9514 129.971C43.3004 130.609 42.9419 131.525 42.7274 132.16C42.6419 132.416 42.5639 132.676 42.4934 132.938Z" fill="#030047"/>
<path d="M324.852 114.853C324.718 114.853 324.583 114.85 324.448 114.846C324.154 114.834 323.924 114.586 323.936 114.292C323.946 113.998 324.187 113.76 324.489 113.779C328.566 113.944 332.659 111.343 334.27 107.619C334.717 106.584 335.35 104.568 334.557 102.696C334.461 102.468 334.343 102.253 334.206 102.054C333.735 102.514 333.222 102.931 332.673 103.293C331.553 104.032 329.878 104.514 328.842 103.441C328.23 102.805 328.11 101.736 328.557 100.899C328.932 100.197 329.65 99.6716 330.53 99.4616C331.791 99.1601 333.165 99.5756 334.209 100.47C335.448 98.9471 336.244 97.0481 336.402 95.1041C336.636 92.2046 335.451 89.1791 333.312 87.2081C333.095 87.0086 333.081 86.6711 333.281 86.4536C333.482 86.2376 333.819 86.2226 334.035 86.4221C336.411 88.6106 337.725 91.9706 337.467 95.1896C337.288 97.3946 336.372 99.5441 334.945 101.253C335.181 101.566 335.382 101.91 335.539 102.28C336.243 103.939 336.139 105.985 335.25 108.043C333.496 112.098 329.262 114.853 324.852 114.853ZM331.364 100.429C331.166 100.429 330.97 100.452 330.78 100.497C330.207 100.635 329.727 100.971 329.5 101.398C329.269 101.832 329.317 102.391 329.613 102.697C330.153 103.257 331.273 102.934 332.086 102.399C332.589 102.067 333.06 101.683 333.49 101.259C332.866 100.738 332.105 100.429 331.364 100.429Z" fill="#030047"/>
<path d="M63.258 194.346L59.8965 196.462C58.3185 197.446 56.2455 196.975 55.2585 195.408L53.142 192.046C52.1565 190.479 52.6275 188.406 54.195 187.419L57.5595 185.292C59.127 184.305 61.2 184.777 62.1975 186.346L64.311 189.718C65.298 191.286 64.8255 193.359 63.258 194.346Z" fill="#C596FF"/>
<path d="M327.57 179.564L325.024 181.166C323.829 181.912 322.26 181.555 321.513 180.368L319.911 177.823C319.164 176.636 319.521 175.066 320.707 174.319L323.254 172.708C324.441 171.961 326.011 172.318 326.766 173.506L328.366 176.06C329.113 177.247 328.756 178.817 327.57 179.564Z" fill="#C596FF"/>
<path d="M64.0771 91.7484L62.3431 92.8404C61.5286 93.3474 60.4591 93.1044 59.9506 92.2959L58.8586 90.5619C58.3501 89.7534 58.5931 88.6839 59.4016 88.1754L61.1371 87.0789C61.9456 86.5704 63.0151 86.8134 63.5296 87.6234L64.6201 89.3634C65.1286 90.1689 64.8856 91.2384 64.0771 91.7484Z" fill="#C596FF"/>
<path d="M322.751 46.7455L321.017 47.8375C320.202 48.3445 319.133 48.1015 318.624 47.293L317.532 45.559C317.024 44.7505 317.267 43.6811 318.075 43.1726L319.811 42.0761C320.619 41.5676 321.689 41.8105 322.203 42.6205L323.294 44.3606C323.802 45.1661 323.559 46.2355 322.751 46.7455Z" fill="#C596FF"/>
<path d="M123.265 38.363H126.201C126.023 39.1459 125.721 39.9111 125.294 40.6584C124.884 41.4057 124.342 42.1175 123.665 42.7936C122.989 43.4698 122.144 44.0125 121.13 44.4217C120.116 44.831 119.004 45.0356 117.794 45.0356C115.285 45.0356 113.167 44.137 111.441 42.3399C109.715 40.5427 108.852 38.2385 108.852 35.4271C108.852 32.6157 109.715 30.3114 111.441 28.5143C113.167 26.7171 115.285 25.8185 117.794 25.8185C120 25.8185 121.842 26.4591 123.319 27.7402C124.813 29.0036 125.774 30.5427 126.201 32.3577H123.265C122.802 31.1121 122.082 30.1602 121.103 29.5018C120.125 28.8256 119.021 28.4876 117.794 28.4876C116.014 28.4876 114.546 29.1192 113.39 30.3826C112.233 31.6459 111.655 33.3274 111.655 35.4271C111.655 37.5267 112.233 39.2082 113.39 40.4716C114.546 41.7349 116.014 42.3666 117.794 42.3666C119.217 42.3666 120.391 41.984 121.317 41.2189C122.26 40.436 122.909 39.484 123.265 38.363ZM132.005 41.4057C132.771 42.2242 133.731 42.6335 134.888 42.6335C136.045 42.6335 136.996 42.2242 137.744 41.4057C138.509 40.5694 138.892 39.4662 138.892 38.0961C138.892 36.726 138.509 35.6317 137.744 34.8132C136.996 33.9769 136.045 33.5587 134.888 33.5587C133.731 33.5587 132.771 33.9769 132.005 34.8132C131.258 35.6317 130.884 36.726 130.884 38.0961C130.884 39.4662 131.258 40.5694 132.005 41.4057ZM139.666 43.1139C138.42 44.395 136.827 45.0356 134.888 45.0356C132.948 45.0356 131.347 44.395 130.084 43.1139C128.838 41.8328 128.215 40.1602 128.215 38.0961C128.215 36.0321 128.838 34.3595 130.084 33.0783C131.347 31.7972 132.948 31.1566 134.888 31.1566C136.827 31.1566 138.42 31.7972 139.666 33.0783C140.929 34.3595 141.561 36.0321 141.561 38.0961C141.561 40.1602 140.929 41.8328 139.666 43.1139ZM144.365 44.7687V31.4235H146.767L147.034 32.758H147.168C147.417 32.4733 147.728 32.2064 148.102 31.9573C148.92 31.4235 149.765 31.1566 150.637 31.1566C151.741 31.1566 152.675 31.468 153.44 32.0908C153.778 32.4111 154.045 32.7224 154.241 33.0249H154.374C154.605 32.7224 154.952 32.4111 155.415 32.0908C156.411 31.468 157.532 31.1566 158.778 31.1566C160.166 31.1566 161.314 31.6459 162.221 32.6246C163.128 33.5854 163.582 34.8221 163.582 36.3345V44.7687H160.913V36.3612C160.913 35.5071 160.664 34.831 160.166 34.3328C159.685 33.8167 159.045 33.5587 158.244 33.5587C157.426 33.5587 156.732 33.8256 156.162 34.3595C155.593 34.8933 155.308 35.5605 155.308 36.3612V44.7687H152.639V36.3612C152.639 35.5071 152.39 34.831 151.892 34.3328C151.411 33.8167 150.771 33.5587 149.97 33.5587C149.152 33.5587 148.458 33.8256 147.888 34.3595C147.319 34.8933 147.034 35.5605 147.034 36.3612V44.7687H144.365ZM166.911 44.7687V31.4235H169.58V44.7687H166.911ZM166.778 28.8879V26.0854H169.714V28.8879H166.778ZM173.063 44.7687V31.4235H175.465L175.732 32.758H175.865C176.167 32.4555 176.497 32.1886 176.853 31.9573C177.707 31.4235 178.667 31.1566 179.735 31.1566C181.354 31.1566 182.644 31.6637 183.605 32.678C184.584 33.6744 185.073 35.0356 185.073 36.7616V44.7687H182.404V36.7616C182.404 35.8897 182.093 35.1424 181.47 34.5196C180.865 33.879 180.109 33.5587 179.201 33.5587C178.223 33.5587 177.395 33.879 176.719 34.5196C176.061 35.1424 175.732 35.8897 175.732 36.7616V44.7687H173.063ZM191.457 40.4716C192.169 41.2011 193.068 41.5659 194.153 41.5659C195.239 41.5659 196.128 41.2011 196.822 40.4716C197.534 39.7242 197.89 38.7545 197.89 37.5623C197.89 36.3701 197.534 35.4093 196.822 34.6797C196.128 33.9324 195.239 33.5587 194.153 33.5587C193.068 33.5587 192.169 33.9324 191.457 34.6797C190.763 35.4093 190.416 36.3701 190.416 37.5623C190.416 38.7545 190.763 39.7242 191.457 40.4716ZM188.148 45.5694H190.817C190.888 46.2278 191.226 46.7883 191.831 47.2509C192.454 47.7313 193.272 47.9716 194.287 47.9716C195.354 47.9716 196.217 47.6424 196.876 46.984C197.552 46.3434 197.89 45.516 197.89 44.5018V42.3666H197.756C197.454 42.6691 197.187 42.9093 196.956 43.0872C196.724 43.2651 196.306 43.4609 195.701 43.6744C195.096 43.8701 194.402 43.968 193.619 43.968C191.929 43.968 190.523 43.3808 189.402 42.2064C188.299 41.0143 187.747 39.4662 187.747 37.5623C187.747 35.6584 188.299 34.1192 189.402 32.9449C190.523 31.7527 191.929 31.1566 193.619 31.1566C195.399 31.1566 196.778 31.7349 197.756 32.8915H197.89L198.157 31.4235H200.559V44.5018C200.559 46.2812 200.007 47.7047 198.904 48.7723C197.801 49.8399 196.262 50.3737 194.287 50.3737C193.255 50.3737 192.329 50.2135 191.511 49.8933C190.692 49.573 190.052 49.1548 189.589 48.6388C189.144 48.1406 188.797 47.6246 188.548 47.0908C188.317 46.5748 188.183 46.0676 188.148 45.5694ZM209.642 39.0303H212.444C212.444 39.9377 212.863 40.7207 213.699 41.379C214.553 42.0374 215.647 42.3666 216.982 42.3666C218.441 42.3666 219.517 42.1175 220.211 41.6192C220.905 41.1032 221.252 40.4182 221.252 39.5641C221.252 38.194 220.185 37.3043 218.049 36.895L214.446 36.2278C212.987 35.9609 211.884 35.4004 211.137 34.5463C210.407 33.6922 210.042 32.6068 210.042 31.2901C210.042 29.7242 210.647 28.4253 211.857 27.3933C213.067 26.3434 214.686 25.8185 216.715 25.8185C218.957 25.8185 220.692 26.3879 221.919 27.5267C223.165 28.6477 223.788 30.0801 223.788 31.8239H220.985C220.985 30.9164 220.594 30.1335 219.811 29.4751C219.028 28.8167 217.996 28.4876 216.715 28.4876C215.505 28.4876 214.553 28.7634 213.859 29.315C213.183 29.8488 212.845 30.5071 212.845 31.2901C212.845 32.6068 213.779 33.452 215.647 33.8256L218.583 34.3595C220.469 34.6975 221.848 35.2847 222.72 36.121C223.61 36.9395 224.055 38.0872 224.055 39.5641C224.055 41.1655 223.441 42.4822 222.213 43.5143C220.985 44.5285 219.242 45.0356 216.982 45.0356C214.722 45.0356 212.934 44.4662 211.617 43.3274C210.3 42.1886 209.642 40.7563 209.642 39.0303ZM230.113 41.4057C230.879 42.2242 231.839 42.6335 232.996 42.6335C234.153 42.6335 235.105 42.2242 235.852 41.4057C236.617 40.5694 237 39.4662 237 38.0961C237 36.726 236.617 35.6317 235.852 34.8132C235.105 33.9769 234.153 33.5587 232.996 33.5587C231.839 33.5587 230.879 33.9769 230.113 34.8132C229.366 35.6317 228.992 36.726 228.992 38.0961C228.992 39.4662 229.366 40.5694 230.113 41.4057ZM237.774 43.1139C236.528 44.395 234.935 45.0356 232.996 45.0356C231.056 45.0356 229.455 44.395 228.192 43.1139C226.946 41.8328 226.323 40.1602 226.323 38.0961C226.323 36.0321 226.946 34.3595 228.192 33.0783C229.455 31.7972 231.056 31.1566 232.996 31.1566C234.935 31.1566 236.528 31.7972 237.774 33.0783C239.037 34.3595 239.669 36.0321 239.669 38.0961C239.669 40.1602 239.037 41.8328 237.774 43.1139ZM245.596 41.4057C246.361 42.2242 247.322 42.6335 248.479 42.6335C249.635 42.6335 250.587 42.2242 251.334 41.4057C252.1 40.5694 252.482 39.4662 252.482 38.0961C252.482 36.726 252.1 35.6317 251.334 34.8132C250.587 33.9769 249.635 33.5587 248.479 33.5587C247.322 33.5587 246.361 33.9769 245.596 34.8132C244.849 35.6317 244.475 36.726 244.475 38.0961C244.475 39.4662 244.849 40.5694 245.596 41.4057ZM253.256 43.1139C252.011 44.395 250.418 45.0356 248.479 45.0356C246.539 45.0356 244.938 44.395 243.674 43.1139C242.429 41.8328 241.806 40.1602 241.806 38.0961C241.806 36.0321 242.429 34.3595 243.674 33.0783C244.938 31.7972 246.539 31.1566 248.479 31.1566C250.418 31.1566 252.011 31.7972 253.256 33.0783C254.519 34.3595 255.151 36.0321 255.151 38.0961C255.151 40.1602 254.519 41.8328 253.256 43.1139ZM257.956 44.7687V31.4235H260.358L260.625 32.758H260.758C261.061 32.4555 261.39 32.1886 261.746 31.9573C262.6 31.4235 263.561 31.1566 264.628 31.1566C266.248 31.1566 267.538 31.6637 268.498 32.678C269.477 33.6744 269.966 35.0356 269.966 36.7616V44.7687H267.297V36.7616C267.297 35.8897 266.986 35.1424 266.363 34.5196C265.758 33.879 265.002 33.5587 264.094 33.5587C263.116 33.5587 262.288 33.879 261.612 34.5196C260.954 35.1424 260.625 35.8897 260.625 36.7616V44.7687H257.956ZM274.242 39.9644L273.842 33.6922V26.0854H276.644V33.6922L276.244 39.9644H274.242ZM273.708 44.7687V41.6993H276.778V44.7687H273.708Z" fill="white"/>
</g>
<defs>
<clipPath id="clip0_913_234046">
<rect width="375" height="225" fill="white"/>
</clipPath>
</defs>
</svg>
