<svg width="50" height="34" viewBox="0 0 50 34" fill="none" xmlns="http://www.w3.org/2000/svg">
<path fill-rule="evenodd" clip-rule="evenodd" d="M33.5241 14.7786C34.6368 14.3006 35.7736 13.924 36.9376 13.6691C38.9549 13.2269 40.6003 13.2132 42.628 13.5241C45.1395 13.9091 47.1822 14.7103 48.9562 15.7508L50 13.9429C47.8058 12.6592 45.4777 11.8489 42.944 11.4606C40.6874 11.1153 38.726 11.14 36.4909 11.6304C35.1239 11.9302 33.805 12.3756 32.5343 12.9336C31.897 13.2132 31.272 13.5208 30.6581 13.8525L24.9834 3.27827H48.6506V1.19074H21.4944L28.8574 14.9106C27.8364 15.5583 26.8492 16.2646 25.8952 17.0059L16.7588 0L1.76692 29.9837C1.14651 31.2246 0.662028 32.1942 0 33.5176C1.70384 33.5176 3.06887 33.5417 4.77791 33.2984C6.89666 32.9967 8.7917 32.3958 10.7219 31.4301C13.874 29.8537 17.1191 27.3051 21.5835 23.5007C22.2911 22.8978 22.972 22.2761 23.6548 21.6564C24.0944 21.2577 24.5347 20.8591 24.9841 20.4669C25.0751 20.3876 25.1662 20.3083 25.2579 20.2296L26.2711 22.1149L31.2753 31.4301L32.3971 33.5176H41.2135L40.093 31.4301L32.6338 17.5301L31.6466 15.691C32.2657 15.356 32.892 15.0511 33.5261 14.7786H33.5241ZM29.8465 16.7549L30.8363 18.5992L37.7219 31.4301H33.6438L27.9014 20.7407L26.8973 18.8723C27.8656 18.1069 28.8476 17.3961 29.8465 16.7549ZM24.2446 18.3469C24.0313 18.5283 23.8193 18.7104 23.6093 18.8938C23.2815 19.1799 22.9577 19.47 22.6351 19.762C21.8372 20.4838 21.0464 21.2141 20.2276 21.9119C17.8604 23.9292 15.4068 26.0051 12.8315 27.7518C11.0308 28.9731 9.14872 30.0247 7.05923 30.6633C6.6892 30.7765 6.31852 30.8747 5.94589 30.9605C5.10893 31.1524 4.26481 31.2779 3.41549 31.354L16.8251 4.53535L24.2459 18.3482L24.2446 18.3469Z" fill="white"/>
</svg>
