<svg width="100" height="100" viewBox="0 0 100 100" fill="none" xmlns="http://www.w3.org/2000/svg">
<path d="M85.1478 27.5181H78.3824C78.2811 27.5181 78.1788 27.6197 78.1788 27.7216V54.4256C78.1788 60.3766 73.3976 65.1578 67.4463 65.1578C66.5819 65.1578 65.7172 65.1072 64.9035 64.9543H64.8528C64.7509 64.9037 64.5983 64.9037 64.4964 64.8527H64.4458C64.2932 64.8018 64.1913 64.7511 64.0897 64.7511C63.4795 64.5473 62.7673 64.2935 62.1062 63.9374C62.1062 63.9374 62.0552 63.9374 62.0042 63.8864C61.8007 63.7852 61.1395 63.4288 60.3258 62.8695C59.9187 62.5641 59.512 62.208 59.054 61.8009C58.9018 61.6487 58.6983 61.7503 58.6473 61.9032L56.8673 68.719C56.8163 68.8712 56.9179 69.075 57.0195 69.2279C57.4772 69.533 57.8842 69.8382 58.2406 69.9907C59.8175 70.9064 62.9709 72.2794 67.1418 72.2794H67.396C71.4654 72.2794 75.1784 70.957 78.1286 68.719V72.1268C78.1286 72.2284 78.2302 72.3303 78.3321 72.3303H85.0972C85.1988 72.3303 85.3007 72.2288 85.3007 72.1268V27.7216C85.3007 27.6197 85.2498 27.5181 85.1485 27.5181H85.1478Z" fill="white"/>
<path d="M41.8108 38.81C40.2849 37.8944 37.1312 36.521 32.9096 36.521H32.6551C28.5857 36.521 24.8727 37.8434 21.9225 40.0818V36.7249C21.9225 36.623 21.8209 36.5214 21.719 36.5214H14.9539C14.8013 36.4704 14.7504 36.623 14.7504 36.7249V72.2282C14.7504 72.3298 14.8523 72.4321 14.9539 72.4321H21.719C21.8206 72.4321 21.9225 72.3301 21.9225 72.2282V54.4258C21.9225 48.4744 26.7037 43.6932 32.6551 43.6932C33.5198 43.6932 34.3845 43.7441 35.1983 43.8967H35.2492C35.3512 43.9477 35.5037 43.9477 35.6053 43.9983H35.6563C35.8088 44.0493 35.9108 44.0999 36.0123 44.0999C36.6226 44.3034 37.3347 44.5575 37.9959 44.9136C37.9959 44.9136 38.0469 44.9136 38.0975 44.9646C38.301 45.0662 38.9622 45.4222 39.7759 45.9818C40.183 46.287 40.5897 46.643 41.0477 47.0501C41.2002 47.2026 41.4038 47.101 41.4547 46.9485L43.1842 40.0308C43.2351 39.8783 43.1332 39.6751 43.0316 39.5222C42.6245 39.2681 42.1669 38.9626 41.8108 38.81Z" fill="white"/>
<path d="M64.6999 43.6928C65.5646 43.6928 66.4293 43.7438 67.2427 43.8963H67.2937C67.3953 43.9473 67.5482 43.9473 67.6498 43.9979H67.7004C67.8529 44.0489 67.9549 44.0995 68.0568 44.0995C68.667 44.303 69.3792 44.5571 70.0404 44.9132C70.0404 44.9132 70.0913 44.9132 70.142 44.9642C70.3455 45.0658 71.007 45.4218 71.8204 45.9814C72.2271 46.2866 72.6341 46.6426 73.0922 47.0497C73.2451 47.2022 73.4482 47.1006 73.4992 46.9481L75.2792 40.1324C75.3302 39.9795 75.2283 39.7763 75.1267 39.6237C74.6694 39.3186 74.262 39.0132 73.9059 38.8606C72.3804 37.9959 69.2263 36.6226 65.0047 36.6226H64.7502C60.6811 36.6226 56.9678 37.9449 54.0176 40.1833V36.8264C54.0176 36.7248 53.9164 36.6229 53.8141 36.6229H46.9984C46.8968 36.6229 46.7948 36.7245 46.7948 36.8264V72.3297C46.7948 72.4317 46.8964 72.5333 46.9984 72.5333H53.7631C53.8654 72.5333 53.967 72.432 53.967 72.3297V54.4257C53.9164 48.4743 58.7482 43.6931 64.6996 43.6931L64.6999 43.6928Z" fill="white"/>
</svg>
